<?xml version="1.0"?>
<svg xmlns:rdf="http://www.w3.org/1999/02/22-rdf-syntax-ns#" xmlns="http://www.w3.org/2000/svg" xmlns:cc="http://creativecommons.org/ns#" xmlns:dc="http://purl.org/dc/elements/1.1/" xmlns:svg="http://www.w3.org/2000/svg" id="svg2" viewBox="0 0 283.46 283.46" version="1.1">
  <defs id="defs4">
    <style id="style2989" type="text/css">.fil0 {fill:#1F1A17}
    .fil1 {fill:#DA251D}</style>
    <style id="style3022" type="text/css">.fil0 {fill:#1F1A17}
    .fil1 {fill:#DA251D}</style>
  </defs>
  <g id="layer1" transform="translate(0 -768.9)">
    <g id="g3027">
      <g id="g4064" transform="translate(-190.59 392.4)" fill-rule="evenodd">
        <path id="path4021" class="fil0" d="m274.72 513.85s-6.1977-6.6677-16.622-4.2179c-40.741 9.5484-41.813-11.057-38.11-23.301 3.7036-12.243 2.3421-13.644 2.8553-19.804 0 0 1.5014 8.5518 0.36161 14.164-2.1339 10.508-0.87526 17.404 1.9162 21.121 6.8072 9.0623 16.678 6.0753 27.77 4.3998 8.5878-1.2972 16.243-0.34363 23.401 4.8847l0.98403 1.6241z"/>
        <path id="path4023" class="fil0" d="m276.95 512.35c-15.346-17.043-33.084 1.2896-47.226-8.3569s2.1426-31.047-9.5812-46.24 4.3271-1.5732 9.8337 2.7539c5.507 4.3263 6.6873 7.8668 6.6873 7.8668 3.8359-23.186 19.804-28.814 17.7-50.349 0 0 4.4222-1.3517 7.4742 5.507 3.0521 6.8587 2.6636 14.679 11.953 17.131-10.655 10.55-13.966 17.598-14.542 32.161-0.57608 14.562 9.5668 24.095 15.034 35.885 1.1372 2.906 5.559 6.162 2.667 3.6414z"/>
        <path id="path4025" class="fil1" fill="#da251d" d="m275.91 513.21s-1.8366-8.3692-5.77-14.663c-29.478-41.403 16.615-83.13 56.249-60.576 9.8341 5.9003 14.554 9.3704 28.322 10.227 13.747 0.85539 20.847-1.5732 27.141 0.39331 6.294 1.9669 12.549 11.773 12.549 11.773s-11.882-3.9583-19.475-0.40225c-5.2796 2.4727-14.929 7.4376-18.985 9.0832-18.036 7.3177-29.45 0.14515-42.896-7.254s-29.691-0.0819-29.909 21.527c-0.21806 21.609 2.6688 29.799 2.6816 29.789z"/>
        <path id="path4027" class="fil0" d="m288.49 513.08c-1.33-18.713 12.063-35.332 35.361-22.666 20.502 9.9561 34.712 4.0098 38.442 2.6382-6.2104 4.7055-14.674 6.3986-22.209 6.3148-8.6285-0.21162-17.005-4.1423-25.164-6.1024-12.621-3.0319-22.468 7.2887-22.792 19.908z"/>
        <path id="path4029" class="fil0" d="m286.06 513.05c-1.8742-13.685-2.8559-26.934-1.0885-36.427 2.119-11.382 11.466-17.1 19.335-16.442 5.5709 0.46592 10.736 4.1257 15.184 6.4297 8.7419 4.5286 17.345 8.6683 27.583 6.3169 11.577-2.659 17.511-6.5082 26.856-10.946 9.7618-4.6361 25.313-1.1064 34.276 7.8937-21.691-1.0686-23.969 9.3957-41.586 19.438-25.294 14.419-41.648-2.3018-54.265-4.2529-16.675-2.5784-25.796 11.411-23.727 27.911z"/>
      </g>
      <path id="path4031" stroke-linejoin="round" stroke="#000" stroke-linecap="round" d="m74.977 905.47v7.8438h34.438v-7.8438h-34.438zm5.3125 8.0625v9.5312c-18.431 5.4765-31.875 22.54-31.875 42.75 0 24.636 19.99 44.625 44.625 44.625 16.318 0 30.536-8.7668 38.312-21.844-7.3763 11.582-20.283 19.25-35.031 19.25-22.953 0-41.594-18.609-41.594-41.562 0-7.1646 1.8382-13.9 5.0312-19.781-4.6232 12.903-2.9275 27.002 4 38.312-6.011-12.761-5.8684-28.171 1.7188-41.312 5.6414-9.7715 13.397-15.587 22.188-17.844 0.0875-0.0225 0.1936-0.0407 0.28125-0.0625 2.7056-0.55312 5.5059-0.84375 8.375-0.84375 18.649 0 34.426 12.269 39.688 29.188-4.2284-15.354-16.451-27.36-31.906-31.312v-9.0938h-23.812z"/>
      <path id="path2994" d="m85.231 974.42 2.692 0.49623c-1.1863 3.1122-2.6906 5.4647-4.5129 7.0576s-3.7656 2.3893-5.8298 2.3893c-2.5167 0-4.4102-0.9986-5.6805-2.9958s-1.7145-4.8582-1.3326-8.5831c0.49754-4.8521 2.0307-8.8649 4.5994-12.038 2.2885-2.8304 4.9173-4.2456 7.8864-4.2456 2.1962 0.00002 3.8968 0.76582 5.1018 2.2974 1.2049 1.5316 1.7833 3.5901 1.735 6.1754l-2.6194 0.31245c-0.0736-1.9482-0.48758-3.4032-1.242-4.365-0.75442-0.96182-1.8056-1.4427-3.1534-1.4428-2.5355 0.00002-4.7358 1.4642-6.6008 4.3926-1.6161 2.5241-2.602 5.5199-2.9576 8.9874-0.28396 2.7691 0.02244 4.8827 0.91919 6.3408 0.89673 1.4581 2.184 2.1871 3.8618 2.1871 1.4327 0.00001 2.7909-0.60651 4.0747-1.8195 1.2837-1.213 2.3033-2.9284 3.0585-5.1462z"/>
      <path id="path2996" d="m87.142 983.91 14.512-26.944h3.266l0.65865 26.944h-2.6864l-0.20852-7.756h-8.3842l-4.1179 7.756zm8.63-10.531h6.8573l-0.11236-6.7635c-0.0359-2.6833 0.00017-4.9195 0.10822-6.7084-0.62962 1.5439-1.5055 3.3757-2.6278 5.4954z"/>
      <path id="path2998" d="m108.42 983.91 7.1035-26.944h8.6953c1.7155 0.00003 2.9971 0.18688 3.8448 0.56056 0.84768 0.37374 1.4709 1.0752 1.8697 2.1044 0.39872 1.0293 0.51767 2.328 0.35688 3.8964-0.22493 2.1933-0.96292 4.0128-2.214 5.4586s-3.1287 2.3832-5.6328 2.812c0.67991 0.72292 1.1773 1.4336 1.4922 2.132 0.70507 1.5806 1.2348 3.2164 1.5893 4.9072l1.0634 5.0726h-3.0964l-0.97004-5.0175c-0.35133-1.8134-0.80319-3.3817-1.3556-4.705-0.37707-0.91895-0.7959-1.5224-1.2565-1.8104-0.46063-0.28793-1.2424-0.4319-2.3452-0.43191h-3.2236l-3.1498 11.965zm6.6872-14.887h3.8316c1.772 0.00001 2.9298-0.0307 3.4734-0.0919 1.0601-0.13476 1.9492-0.44108 2.6675-0.91896 0.71822-0.47783 1.3026-1.1211 1.7532-1.9298 0.45051-0.80867 0.72352-1.6786 0.81903-2.6098 0.0804-0.78417 0.0138-1.4672-0.19988-2.0493-0.21369-0.58199-0.53135-0.97714-0.95298-1.1855-0.42167-0.20827-1.165-0.31242-2.2301-0.31245h-6.7583z"/>
      <path id="path3000" d="m127.41 983.91 14.512-26.944h3.266l0.65865 26.944h-2.6864l-0.20852-7.756h-8.3842l-4.1179 7.756zm8.63-10.531h6.8572l-0.11235-6.7635c-0.0359-2.6833 0.00017-4.9195 0.10822-6.7084-0.62961 1.5439-1.5055 3.3757-2.6278 5.4954z"/>
      <path id="path3002" d="m148.59 983.91 7.1035-26.944h6.419c1.1688 0.00003 2.0297 0.0613 2.5827 0.18379 0.90235 0.20833 1.645 0.57284 2.2278 1.0936 0.58283 0.52076 1.0024 1.2314 1.2589 2.132 0.25638 0.90061 0.32867 1.8962 0.21687 2.9866-0.15205 1.4826-0.59927 2.7875-1.3416 3.9148-0.74243 1.1273-1.7894 1.985-3.1411 2.5731 1.0726 0.47786 1.8377 1.1977 2.2952 2.1596 0.45746 0.96186 0.62025 2.086 0.48834 3.3726-0.15205 1.4826-0.62534 2.9039-1.4199 4.264-0.79457 1.3601-1.7695 2.4107-2.9247 3.152-1.1553 0.7413-2.3974 1.1119-3.7264 1.1119zm6.8427-15.438h4.1992c2.0077 0.00002 3.4949-0.41658 4.4617-1.2498 0.96673-0.83317 1.5318-2.0462 1.6951-3.6391 0.0779-0.75965 0.008-1.4152-0.20836-1.9666-0.21683-0.55135-0.54093-0.95263-0.97231-1.2038-0.43141-0.25115-1.2786-0.37675-2.5417-0.37677h-4.4113zm-3.2638 12.388h4.7223c1.2536 0.00001 2.1029-0.0552 2.5478-0.16542 0.89669-0.19603 1.6426-0.52992 2.2376-1.0017 0.59505-0.47173 1.0877-1.0936 1.4779-1.8655 0.39018-0.77192 0.62863-1.5806 0.71534-2.426 0.1294-1.262-0.0763-2.2208-0.617-2.8763-0.54075-0.65551-1.6642-0.98327-3.3702-0.98328h-5.2596z"/>
      <path id="path3004" d="m168.33 983.91 7.1035-26.944h2.757l-7.0893 26.944z"/>
      <path id="path3006" d="m176.12 983.91 7.1035-26.944h2.6864l2.4557 10.109c0.74847 3.0877 1.3257 5.6853 1.7317 7.7928 0.23252 1.2253 0.47763 2.8794 0.73535 4.9624 0.48692-2.2668 1.0474-4.607 1.6814-7.0208l4.1695-15.843h2.7005l-7.0893 26.944h-2.7429l-3.5502-15.567c-0.63288-2.7446-1.0964-5.1645-1.3905-7.2598-0.32107 1.7522-0.81493 3.9025-1.4816 6.4511l-4.309 16.376z"/>
      <path id="path3008" d="m197.28 983.91 7.1035-26.944h2.757l-7.0894 26.944z"/>
      <path id="path3010" d="m204.96 983.91 7.1035-26.944h14.959l-0.80959 3.0693h-12.188l-2.2167 8.3809h11.876l-0.80959 3.0693h-11.876l-2.4599 9.3734h13.05l-0.8077 3.0509z"/>
      <path id="path3012" d="m224.36 983.91 7.1035-26.944h8.6953c1.7155 0.00003 2.9971 0.18688 3.8448 0.56056 0.84768 0.37374 1.4709 1.0752 1.8697 2.1044 0.39871 1.0293 0.51767 2.328 0.35687 3.8964-0.22493 2.1933-0.96291 4.0128-2.214 5.4586s-3.1287 2.3832-5.6328 2.812c0.67992 0.72292 1.1773 1.4336 1.4922 2.132 0.70508 1.5806 1.2348 3.2164 1.5893 4.9072l1.0634 5.0726h-3.0964l-0.97005-5.0175c-0.35134-1.8134-0.80318-3.3817-1.3556-4.705-0.37707-0.91895-0.7959-1.5224-1.2565-1.8104-0.46063-0.28793-1.2423-0.4319-2.3452-0.43191h-3.2236l-3.1498 11.965zm6.6872-14.887h3.8316c1.772 0.00001 2.9298-0.0307 3.4734-0.0919 1.0601-0.13476 1.9492-0.44108 2.6675-0.91896 0.71821-0.47783 1.3026-1.1211 1.7531-1.9298 0.45051-0.80867 0.72352-1.6786 0.81903-2.6098 0.0804-0.78417 0.0138-1.4672-0.19988-2.0493-0.21369-0.58199-0.53134-0.97714-0.95298-1.1855-0.42167-0.20827-1.165-0.31242-2.2302-0.31245h-6.7583z"/>
      <path id="path3014" d="m245.58 983.91 7.1035-26.944h2.757l-7.0893 26.944z"/>
    </g>
  </g>
  <metadata>
    <rdf:RDF>
      <cc:Work>
        <dc:format>image/svg+xml</dc:format>
        <dc:type rdf:resource="http://purl.org/dc/dcmitype/StillImage"/>
        <cc:license rdf:resource="http://creativecommons.org/licenses/publicdomain/"/>
        <dc:publisher>
          <cc:Agent rdf:about="http://openclipart.org/">
            <dc:title>Openclipart</dc:title>
          </cc:Agent>
        </dc:publisher>
        <dc:title>Logo Carabinieri 01</dc:title>
        <dc:date>2011-09-27T06:20:37</dc:date>
        <dc:description>carabinieri, clip art, clipart, italy, </dc:description>
        <dc:source>http://openclipart.org/detail/162115/logo-carabinieri-01-by-scigola</dc:source>
        <dc:creator>
          <cc:Agent>
            <dc:title>scigola</dc:title>
          </cc:Agent>
        </dc:creator>
        <dc:subject>
          <rdf:Bag>
            <rdf:li>carabinieri</rdf:li>
            <rdf:li>clip art</rdf:li>
            <rdf:li>clipart</rdf:li>
            <rdf:li>italy</rdf:li>
          </rdf:Bag>
        </dc:subject>
      </cc:Work>
      <cc:License rdf:about="http://creativecommons.org/licenses/publicdomain/">
        <cc:permits rdf:resource="http://creativecommons.org/ns#Reproduction"/>
        <cc:permits rdf:resource="http://creativecommons.org/ns#Distribution"/>
        <cc:permits rdf:resource="http://creativecommons.org/ns#DerivativeWorks"/>
      </cc:License>
    </rdf:RDF>
  </metadata>
</svg>
